<?xml version="1.0" encoding="UTF-8"?>
<svg version="1.1" xmlns="http://www.w3.org/2000/svg" width="184" height="184" style="filter: invert(99%) sepia(1%) saturate(7%) hue-rotate(330deg) brightness(105%) contrast(100%)">
<path d="M0 0 C0.73347656 0.39058594 1.46695313 0.78117188 2.22265625 1.18359375 C10.25434931 5.91679517 15.94424224 13.39986711 18.50390625 22.3984375 C20.41550748 32.42305498 20.43848399 42.09786887 18 52 C17.77699219 52.91652344 17.55398437 53.83304688 17.32421875 54.77734375 C15.40928724 61.39338673 12.42017521 67.29868284 9.125 73.3125 C8.71443359 74.06547363 8.30386719 74.81844727 7.88085938 75.59423828 C5.35975777 80.05153802 2.65229557 83.7474999 -0.96533203 87.38354492 C-2.22732706 88.97377575 -2.22732706 88.97377575 -1.73388672 91.0559082 C-0.1552833 95.23768433 2.03161458 98.08991571 5.28125 101.09375 C9.24539701 105.01430678 11.7815633 109.28743969 14.375 114.1875 C14.81199219 114.98091797 15.24898438 115.77433594 15.69921875 116.59179688 C17.57495167 120.04999796 19.17383836 123.13068334 20 127 C21.65 125.68 23.3 124.36 25 123 C25.6875 124.75 25.6875 124.75 26 127 C24.6875 129.25 24.6875 129.25 23 131 C22.34 131 21.68 131 21 131 C20.7421875 131.61488281 20.484375 132.22976562 20.21875 132.86328125 C18.84477835 135.27213539 17.9101032 135.89848989 15.5 137.1875 C10.02680114 140.40994498 5.64152333 144.70474904 1 149 C-0.45358706 150.27625943 -1.91152032 151.54759656 -3.375 152.8125 C-5.42982194 154.59858265 -7.38534124 156.38534124 -9.3125 158.3125 C-11 160 -11 160 -14 162 C-14.78988145 163.95385067 -14.78988145 163.95385067 -15.1875 166.125 C-15.455625 167.40375 -15.72375 168.6825 -16 170 C-18.375 169.6875 -18.375 169.6875 -21 169 C-21.66 168.01 -22.32 167.02 -23 166 C-23.99 166 -24.98 166 -26 166 C-29.89505053 169.99648414 -32.72296095 174.93991322 -35 180 C-36.41655793 180.0272415 -37.83327045 180.04650467 -39.25 180.0625 C-40.43335937 180.07990234 -40.43335937 180.07990234 -41.640625 180.09765625 C-43.96285143 180.00153761 -45.8300721 179.84012695 -48 179 C-49.26349181 175.20952458 -49.85779882 171.90931266 -49 168 C-47.4958831 165.79164339 -45.8014742 163.98674615 -43.94140625 162.0703125 C-39.81124958 157.66592008 -36.73797822 152.4164967 -33.875 147.125 C-32.11845288 144.19742146 -30.93828405 142.66502763 -28 141 C-27.34 141 -26.68 141 -26 141 C-23.92073144 131.64329149 -24.32809765 121.20321921 -27 112 C-27.99 111.01 -27.99 111.01 -29 110 C-31.60280568 110.32041397 -31.60280568 110.32041397 -34 111 C-33.51144531 110.59523438 -33.02289063 110.19046875 -32.51953125 109.7734375 C-30.17044999 107.03183623 -30.64169975 104.6767094 -30.79296875 101.203125 C-31.46046755 94.09993025 -35.7970599 91.32219162 -41 87 C-42.00804687 86.17242187 -43.01609375 85.34484375 -44.0546875 84.4921875 C-50.81619979 78.76788209 -54.91763589 73.82591413 -57 65 C-58.04550369 61.30998697 -59.00801132 57.98274485 -60.625 54.5 C-62.1685995 50.57083763 -62.60775506 48.17831603 -62 44 C-59.52685544 39.95303618 -58.09256759 38.31216217 -53.5 37 C-49.91275774 37 -48.06364784 37.17837155 -45 39 C-43.61767557 40.62626404 -42.28062485 42.2925002 -41 44 C-40.01 44.66 -39.02 45.32 -38 46 C-38.33 47.32 -38.66 48.64 -39 50 C-38.01 50.33 -37.02 50.66 -36 51 C-30.61100779 45.4728285 -30 41.72171057 -30 34 C-30.598125 33.896875 -31.19625 33.79375 -31.8125 33.6875 C-34 33 -34 33 -35.30859375 31.390625 C-36.93780351 29.71770658 -36.93780351 29.71770658 -39.328125 30.22265625 C-40.29234375 30.49980469 -41.2565625 30.77695312 -42.25 31.0625 C-48.88899932 32.79966706 -55.54717457 34.03968096 -62.3125 35.1875 C-63.35760742 35.36611572 -64.40271484 35.54473145 -65.47949219 35.72875977 C-67.98582852 36.15555138 -70.49262302 36.57937249 -73 37 C-73.16435547 37.84884766 -73.16435547 37.84884766 -73.33203125 38.71484375 C-73.49058594 39.44832031 -73.64914063 40.18179688 -73.8125 40.9375 C-73.96332031 41.66839844 -74.11414063 42.39929687 -74.26953125 43.15234375 C-74.51058594 43.76207031 -74.75164062 44.37179688 -75 45 C-76.485 45.495 -76.485 45.495 -78 46 C-78 46.66 -78 47.32 -78 48 C-79.65 48.66 -81.3 49.32 -83 50 C-82.54738642 48.56068883 -82.08767021 47.12361001 -81.625 45.6875 C-81.36976562 44.88699219 -81.11453125 44.08648437 -80.8515625 43.26171875 C-80 41 -80 41 -78 38 C-78.90492187 37.96132812 -78.90492187 37.96132812 -79.828125 37.921875 C-86.4373928 37.45283019 -86.4373928 37.45283019 -89.5625 34.9375 C-90.036875 34.298125 -90.51125 33.65875 -91 33 C-90.67 32.01 -90.34 31.02 -90 30 C-79.11 29.505 -79.11 29.505 -68 29 C-67.67 27.35 -67.34 25.7 -67 24 C-58.98926232 12.65145495 -46.46095174 5.49074985 -34 0 C-33.24589844 -0.3609375 -32.49179688 -0.721875 -31.71484375 -1.09375 C-22.41576826 -4.96388546 -8.78875496 -4.70826159 0 0 Z M-65 27 C-65 27.33 -65 27.66 -65 28 C-61.65747276 28.07427838 -59.1964086 28.06546953 -56 27 C-54.33378384 26.96125079 -52.66605828 26.9549714 -51 27 C-51 26.34 -51 25.68 -51 25 C-48.5622037 24.94602665 -46.12560315 24.90634384 -43.6875 24.875 C-42.99720703 24.85824219 -42.30691406 24.84148438 -41.59570312 24.82421875 C-37.82864604 24.78782206 -36.21568296 24.85621136 -33 27 C-30.40882687 26.99843776 -30.40882687 26.99843776 -28 26 C-26.8499169 24.03327085 -26.8499169 24.03327085 -26 22 C-25.01 21.67 -24.02 21.34 -23 21 C-23.2475 21.5775 -23.495 22.155 -23.75 22.75 C-23.8325 23.4925 -23.915 24.235 -24 25 C-23.0409375 25.9590625 -23.0409375 25.9590625 -22.0625 26.9375 C-20 29 -20 29 -19.75 31.75 C-19.8325 32.4925 -19.915 33.235 -20 34 C-18.68 34.33 -17.36 34.66 -16 35 C-17.98546903 44.20323291 -20.17056757 52.30296945 -24.92578125 60.546875 C-26.17557205 62.88814693 -26.17557205 62.88814693 -25.85546875 65.1796875 C-24.99158633 67.36908837 -24.99158633 67.36908837 -22 69.375 C-17.56517938 72.90269822 -14.96160641 77.42343148 -12.109375 82.23779297 C-9.8986739 86.08647539 -9.8986739 86.08647539 -6 88 C4.3958896 70.83330045 11.63273971 54.55159808 8.56640625 34.109375 C6.17090102 24.64638539 0.49110286 17.32098969 -7.69140625 12.15625 C-28.01600005 1.97675801 -49.63876767 13.3056248 -65 27 Z M-28 30 C-28 30.66 -28 31.32 -28 32 C-27.01 32 -26.02 32 -25 32 C-25 31.34 -25 30.68 -25 30 C-25.99 30 -26.98 30 -28 30 Z M-45 171 C-45.33 171.99 -45.66 172.98 -46 174 C-44.87890434 175.62493901 -44.87890434 175.62493901 -43 177 C-39.87450983 177.25048636 -39.87450983 177.25048636 -37 177 C-37.54708727 174.46255685 -37.54708727 174.46255685 -39 172 C-42.05272465 171.10169161 -42.05272465 171.10169161 -45 171 Z " fill="#1A3887" transform="translate(120,3)"/>
<path d="M0 0 C3.23738418 1.41116746 3.70400388 2.99554533 5.4375 6.0625 C6.50392565 7.12042616 7.59544863 8.1533139 8.703125 9.16796875 C12.68518854 13.08125213 15.21574191 17.34366424 17.8125 22.25 C18.24949219 23.04341797 18.68648438 23.83683594 19.13671875 24.65429688 C21.01245167 28.11249796 22.61133836 31.19318334 23.4375 35.0625 C25.0875 33.7425 26.7375 32.4225 28.4375 31.0625 C29.125 32.8125 29.125 32.8125 29.4375 35.0625 C28.125 37.3125 28.125 37.3125 26.4375 39.0625 C25.7775 39.0625 25.1175 39.0625 24.4375 39.0625 C24.05078125 39.98482422 24.05078125 39.98482422 23.65625 40.92578125 C22.28227835 43.33463539 21.3476032 43.96098989 18.9375 45.25 C13.46430114 48.47244498 9.07902333 52.76724904 4.4375 57.0625 C2.98391294 58.33875943 1.52597968 59.61009656 0.0625 60.875 C-1.99232194 62.66108265 -3.94784124 64.44784124 -5.875 66.375 C-7.5625 68.0625 -7.5625 68.0625 -10.5625 70.0625 C-11.35238145 72.01635067 -11.35238145 72.01635067 -11.75 74.1875 C-12.018125 75.46625 -12.28625 76.745 -12.5625 78.0625 C-14.9375 77.75 -14.9375 77.75 -17.5625 77.0625 C-18.2225 76.0725 -18.8825 75.0825 -19.5625 74.0625 C-20.5525 74.0625 -21.5425 74.0625 -22.5625 74.0625 C-26.45755053 78.05898414 -29.28546095 83.00241322 -31.5625 88.0625 C-32.97905793 88.0897415 -34.39577045 88.10900467 -35.8125 88.125 C-36.99585937 88.14240234 -36.99585937 88.14240234 -38.203125 88.16015625 C-40.52535143 88.06403761 -42.3925721 87.90262695 -44.5625 87.0625 C-45.82599181 83.27202458 -46.42029882 79.97181266 -45.5625 76.0625 C-44.0583831 73.85414339 -42.3639742 72.04924615 -40.50390625 70.1328125 C-36.37374958 65.72842008 -33.30047822 60.4789967 -30.4375 55.1875 C-28.68095288 52.25992146 -27.50078405 50.72752763 -24.5625 49.0625 C-23.9025 49.0625 -23.2425 49.0625 -22.5625 49.0625 C-20.59000189 40.18625853 -21.23561414 31.25463403 -23.125 22.4375 C-23.5625 20.0625 -23.5625 20.0625 -23.5625 16.0625 C-20.68895755 13.88792733 -19.19813409 13.0625 -15.5625 13.0625 C-15.5625 12.4025 -15.5625 11.7425 -15.5625 11.0625 C-13.734375 9.4765625 -13.734375 9.4765625 -11.3125 7.6875 C-8.81951543 5.83812909 -6.58003358 4.08073877 -4.42578125 1.83984375 C-2.5625 0.0625 -2.5625 0.0625 0 0 Z M-41.5625 79.0625 C-41.8925 80.0525 -42.2225 81.0425 -42.5625 82.0625 C-41.44140434 83.68743901 -41.44140434 83.68743901 -39.5625 85.0625 C-36.43700983 85.31298636 -36.43700983 85.31298636 -33.5625 85.0625 C-34.10958727 82.52505685 -34.10958727 82.52505685 -35.5625 80.0625 C-38.61522465 79.16419161 -38.61522465 79.16419161 -41.5625 79.0625 Z " fill="#193886" transform="translate(116.5625,94.9375)"/>
<path d="M0 0 C0.73347656 0.39058594 1.46695313 0.78117188 2.22265625 1.18359375 C10.25434931 5.91679517 15.94424224 13.39986711 18.50390625 22.3984375 C20.41550748 32.42305498 20.43848399 42.09786887 18 52 C17.77699219 52.91652344 17.55398437 53.83304688 17.32421875 54.77734375 C15.40928724 61.39338673 12.42017521 67.29868284 9.125 73.3125 C8.71443359 74.06547363 8.30386719 74.81844727 7.88085938 75.59423828 C5.39084134 79.99658238 2.67714266 83.77525138 -0.77001953 87.48120117 C-2.22868935 89.10056651 -2.22868935 89.10056651 -3 92 C-5 92.66666667 -7 93.33333333 -9 94 C-9.495 95.485 -9.495 95.485 -10 97 C-11.55859375 98.60546875 -11.55859375 98.60546875 -13.4375 100.1875 C-14.05496094 100.71730469 -14.67242187 101.24710937 -15.30859375 101.79296875 C-17 103 -17 103 -19 103 C-19 103.66 -19 104.32 -19 105 C-24.75 108 -24.75 108 -27 108 C-27.33 108.66 -27.66 109.32 -28 110 C-31.0625 110.625 -31.0625 110.625 -34 111 C-31.9468537 108.07821488 -30.48537664 106.23377604 -27.234375 104.66796875 C-23.59387532 102.79056131 -20.82229301 100.4139985 -17.875 97.625 C-17.36324219 97.15578125 -16.85148437 96.6865625 -16.32421875 96.203125 C-13.24518711 93.33780507 -10.54370164 90.34697585 -8 87 C-7.01 87.495 -7.01 87.495 -6 88 C-5.773125 87.154375 -5.54625 86.30875 -5.3125 85.4375 C-4 82 -4 82 -1.75 79.125 C1.07696841 75.38094958 2.61977845 71.29562562 4.25 66.9375 C4.50813477 66.25252441 4.76626953 65.56754883 5.03222656 64.86181641 C8.94745946 54.06755581 10.07859428 40.26300927 6.09375 29.3046875 C1.9659342 20.60678993 -3.17514301 15.00592336 -12 11 C-22.16007638 7.42964778 -35.55829729 9.60024852 -45 14 C-51.65439362 17.37209152 -57.25874323 21.6669303 -62.87109375 26.55859375 C-63.57363281 27.03425781 -64.27617188 27.50992187 -65 28 C-65.99 27.67 -66.98 27.34 -68 27 C-62.30854168 13.54746215 -46.66846097 5.58218598 -34 0 C-33.24589844 -0.3609375 -32.49179688 -0.721875 -31.71484375 -1.09375 C-22.41576826 -4.96388546 -8.78875496 -4.70826159 0 0 Z " fill="#5290CF" transform="translate(120,3)"/>
<path d="M0 0 C0.99 0 1.98 0 3 0 C3.103125 0.94875 3.20625 1.8975 3.3125 2.875 C3.68539295 6.29107501 3.68539295 6.29107501 7 8 C6.67 9.65 6.34 11.3 6 13 C7.65 13.33 9.3 13.66 11 14 C9.01705175 23.19154837 6.79305505 31.35157201 2.171875 39.64453125 C0.77728451 42.00917831 0.77728451 42.00917831 1 45 C2.50882477 46.45512152 2.50882477 46.45512152 4.5 47.875 C10.0182165 52.4850306 14.01111762 58.48576916 17 65 C16.90234375 67.33203125 16.90234375 67.33203125 16 69 C14.515 69.495 14.515 69.495 13 70 C12.34 68.35 11.68 66.7 11 65 C11.66 65 12.32 65 13 65 C11.60804085 62.2160817 9.84424221 62.02101003 7 61 C6.896875 59.906875 6.79375 58.81375 6.6875 57.6875 C5.99561601 53.97648587 5.72851977 53.27376648 3 51 C2.67 50.01 2.34 49.02 2 48 C0.35 47.67 -1.3 47.34 -3 47 C-3.33 45.35 -3.66 43.7 -4 42 C-4.99 42.495 -4.99 42.495 -6 43 C-5.375 40.125 -5.375 40.125 -4 37 C-0.875 35.625 -0.875 35.625 2 35 C2.33 33.35 2.66 31.7 3 30 C2.34 30.66 1.68 31.32 1 32 C0.01 32.66 -0.98 33.32 -2 34 C-5.6875 33.125 -5.6875 33.125 -9 32 C-8.195625 31.29875 -7.39125 30.5975 -6.5625 29.875 C-3.65225325 26.60984511 -3.16882493 25.3050357 -3 21 C-3.21970462 18.30007432 -3.58397067 15.68107789 -4 13 C-4.598125 12.896875 -5.19625 12.79375 -5.8125 12.6875 C-8 12 -8 12 -9.30859375 10.390625 C-10.93780351 8.71770658 -10.93780351 8.71770658 -13.328125 9.22265625 C-14.29234375 9.49980469 -15.2565625 9.77695312 -16.25 10.0625 C-22.88899932 11.79966706 -29.54717457 13.03968096 -36.3125 14.1875 C-37.35760742 14.36611572 -38.40271484 14.54473145 -39.47949219 14.72875977 C-41.98582852 15.15555138 -44.49262302 15.57937249 -47 16 C-47.16435547 16.84884766 -47.16435547 16.84884766 -47.33203125 17.71484375 C-47.49058594 18.44832031 -47.64914063 19.18179688 -47.8125 19.9375 C-47.96332031 20.66839844 -48.11414063 21.39929688 -48.26953125 22.15234375 C-48.51058594 22.76207031 -48.75164063 23.37179688 -49 24 C-49.99 24.33 -50.98 24.66 -52 25 C-52 25.66 -52 26.32 -52 27 C-53.65 27.66 -55.3 28.32 -57 29 C-56.54738642 27.56068883 -56.08767021 26.12361001 -55.625 24.6875 C-55.36976562 23.88699219 -55.11453125 23.08648437 -54.8515625 22.26171875 C-54 20 -54 20 -52 17 C-52.60328125 16.97421875 -53.2065625 16.9484375 -53.828125 16.921875 C-60.4373928 16.45283019 -60.4373928 16.45283019 -63.5625 13.9375 C-64.036875 13.298125 -64.51125 12.65875 -65 12 C-64.67 11.01 -64.34 10.02 -64 9 C-63.07102905 8.96241577 -63.07102905 8.96241577 -62.12329102 8.92407227 C-59.26955112 8.80677342 -56.41603559 8.68466414 -53.5625 8.5625 C-52.58861328 8.52318359 -51.61472656 8.48386719 -50.61132812 8.44335938 C-44.70444466 8.18653835 -38.84774092 7.89827963 -33 7 C-32.67 6.34 -32.34 5.68 -32 5 C-29.69 5.33 -27.38 5.66 -25 6 C-25 5.34 -25 4.68 -25 4 C-20.07013508 2.98874566 -15.02011061 2.43583519 -10 3 C-9.01 3.66 -8.02 4.32 -7 5 C-4.37468476 5.16713569 -4.37468476 5.16713569 -2 5 C-1.34 3.35 -0.68 1.7 0 0 Z M-2 9 C-2 9.66 -2 10.32 -2 11 C-1.01 11 -0.02 11 1 11 C1 10.34 1 9.68 1 9 C0.01 9 -0.98 9 -2 9 Z " fill="#25316A" transform="translate(94,24)"/>
<path d="M0 0 C9.30089159 4.32599609 15.09112455 10.52203604 18.8125 20.125 C21.86172023 30.52501899 21.5702582 41.56276366 19 52 C18.77699219 52.91652344 18.55398437 53.83304688 18.32421875 54.77734375 C16.40928724 61.39338673 13.42017521 67.29868284 10.125 73.3125 C9.71443359 74.06547363 9.30386719 74.81844727 8.88085938 75.59423828 C6.39084134 79.99658238 3.67714266 83.77525138 0.22998047 87.48120117 C-1.22868935 89.10056651 -1.22868935 89.10056651 -2 92 C-4 92.66666667 -6 93.33333333 -8 94 C-8.33 94.99 -8.66 95.98 -9 97 C-10.55859375 98.60546875 -10.55859375 98.60546875 -12.4375 100.1875 C-13.05496094 100.71730469 -13.67242187 101.24710937 -14.30859375 101.79296875 C-16 103 -16 103 -18 103 C-18 103.66 -18 104.32 -18 105 C-23.75 108 -23.75 108 -26 108 C-26.495 108.99 -26.495 108.99 -27 110 C-30.0625 110.625 -30.0625 110.625 -33 111 C-30.9468537 108.07821488 -29.48537664 106.23377604 -26.234375 104.66796875 C-22.59387532 102.79056131 -19.82229301 100.4139985 -16.875 97.625 C-16.36324219 97.15578125 -15.85148437 96.6865625 -15.32421875 96.203125 C-12.24518711 93.33780507 -9.54370164 90.34697585 -7 87 C-6.34 87.33 -5.68 87.66 -5 88 C-4.773125 87.154375 -4.54625 86.30875 -4.3125 85.4375 C-3 82 -3 82 -0.75 79.125 C2.07696841 75.38094958 3.61977845 71.29562562 5.25 66.9375 C5.50813477 66.25252441 5.76626953 65.56754883 6.03222656 64.86181641 C9.9611627 54.02977608 10.99941628 40.41247505 7.1328125 29.39453125 C4.88562204 24.64443556 1.99044347 20.30951579 -1 16 C-0.34 15.67 0.32 15.34 1 15 C2.345131 16.57332286 3.67575054 18.15906141 5 19.75 C5.7425 20.63171875 6.485 21.5134375 7.25 22.421875 C9 25 9 25 9 29 C9.66 29 10.32 29 11 29 C11.95376567 32.20782086 12.11621181 35.08187396 12.09765625 38.421875 C12.09443359 39.44667969 12.09121094 40.47148438 12.08789062 41.52734375 C12.07532227 43.12255859 12.07532227 43.12255859 12.0625 44.75 C12.05798828 45.82894531 12.05347656 46.90789063 12.04882812 48.01953125 C12.03705727 50.67974383 12.02061399 53.33984365 12 56 C11.34 56 10.68 56 10 56 C10.04125 57.010625 10.0825 58.02125 10.125 59.0625 C9.99426157 63.18076052 9.26749214 66.11830533 8 70 C7.34 70 6.68 70 6 70 C5.67 71.98 5.34 73.96 5 76 C5.66 76 6.32 76 7 76 C7.12632813 75.27941406 7.25265625 74.55882813 7.3828125 73.81640625 C7.99091086 71.04147639 8.82383069 68.57357187 9.875 65.9375 C10.20242187 65.10089844 10.52984375 64.26429687 10.8671875 63.40234375 C12 61 12 61 13.55859375 59.01953125 C20.52031344 49.26557711 17.33302389 29.23548706 16 18 C15.34 18 14.68 18 14 18 C13.34 16.02 12.68 14.04 12 12 C11.34 12 10.68 12 10 12 C9.505 11.01 9.505 11.01 9 10 C6.97536745 9.34786708 6.97536745 9.34786708 5 9 C5 7.68 5 6.36 5 5 C3.68 4.67 2.36 4.34 1 4 C0.505 2.02 0.505 2.02 0 0 Z " fill="#4F71A2" transform="translate(119,3)"/>
<path d="M0 0 C0.4640625 0.9590625 0.4640625 0.9590625 0.9375 1.9375 C1.8345163 3.93610821 1.8345163 3.93610821 3 5 C3.86005017 13.53518139 3.95852694 20.40283115 -1.39453125 27.4609375 C-3 29 -3 29 -6 30 C-7.22520264 33.00847418 -7.22520264 33.00847418 -8 36 C-8.66 36 -9.32 36 -10 36 C-10.103125 36.556875 -10.20625 37.11375 -10.3125 37.6875 C-11.55429399 41.86444344 -13.78466021 45.09088305 -17 48 C-16.67 48.66 -16.34 49.32 -16 50 C-15.2575 49.979375 -14.515 49.95875 -13.75 49.9375 C-11.29537721 49.99328688 -9.33890739 50.3069904 -7 51 C-6.01 49.02 -5.02 47.04 -4 45 C-1.1875 44.75 -1.1875 44.75 2 45 C4.04040776 47.04040776 5 48.08325244 5 51 C5.66 51 6.32 51 7 51 C6.896875 49.741875 6.79375 48.48375 6.6875 47.1875 C6.67578125 44.98046875 6.67578125 44.98046875 7 43 C9.40859879 40.97170628 10.83044309 40 14 40 C13 43 13 43 10 45 C9.21011855 46.95385067 9.21011855 46.95385067 8.8125 49.125 C8.544375 50.40375 8.27625 51.6825 8 53 C5.625 52.6875 5.625 52.6875 3 52 C2.34 51.01 1.68 50.02 1 49 C0.01 49 -0.98 49 -2 49 C-5.89505053 52.99648414 -8.72296095 57.93991322 -11 63 C-12.41655793 63.0272415 -13.83327045 63.04650467 -15.25 63.0625 C-16.03890625 63.07410156 -16.8278125 63.08570313 -17.640625 63.09765625 C-19.96285143 63.00153761 -21.8300721 62.84012695 -24 62 C-25.26349181 58.20952458 -25.85779882 54.90931266 -25 51 C-23.4958831 48.79164339 -21.8014742 46.98674615 -19.94140625 45.0703125 C-15.81124958 40.66592008 -12.73797822 35.4164967 -9.875 30.125 C-8.11845288 27.19742146 -6.93828405 25.66502763 -4 24 C-3.34 24 -2.68 24 -2 24 C-1.17701492 19.73719447 -0.91807417 15.77444878 -1 11.4375 C-1.07526004 7.4440141 -0.92754954 3.8913602 0 0 Z M-21 54 C-21.33 54.99 -21.66 55.98 -22 57 C-20.87890434 58.62493901 -20.87890434 58.62493901 -19 60 C-15.87450983 60.25048636 -15.87450983 60.25048636 -13 60 C-13.54708727 57.46255685 -13.54708727 57.46255685 -15 55 C-18.05272465 54.10169161 -18.05272465 54.10169161 -21 54 Z " fill="#1F316D" transform="translate(96,120)"/>
<path d="M0 0 C-0.66 0.66 -1.32 1.32 -2 2 C-3.34186593 1.70287254 -4.67310042 1.35808714 -6 1 C-18.24506602 0.28085553 -18.24506602 0.28085553 -30 3 C-31.7067162 5.51060815 -31.7067162 5.51060815 -33 8 C-32.06317383 7.97643433 -32.06317383 7.97643433 -31.10742188 7.95239258 C-28.23837583 7.88947956 -25.36947558 7.85083269 -22.5 7.8125 C-21.02660156 7.77479492 -21.02660156 7.77479492 -19.5234375 7.73632812 C-13.27426429 7.67383639 -8.66463272 8.29760641 -3 11 C-1 13.1875 -1 13.1875 0 15 C-0.33 15.66 -0.66 16.32 -1 17 C-1.60328125 16.65066406 -2.2065625 16.30132813 -2.828125 15.94140625 C-3.62734375 15.48636719 -4.4265625 15.03132813 -5.25 14.5625 C-6.03890625 14.11003906 -6.8278125 13.65757813 -7.640625 13.19140625 C-16.04521938 8.94736439 -28.64503232 9.86949323 -37.4375 12.625 C-46.39791893 16.12115254 -53.65400821 21.26826077 -60.87109375 27.55859375 C-61.57363281 28.03425781 -62.27617188 28.50992187 -63 29 C-63.99 28.67 -64.98 28.34 -66 28 C-60.30854168 14.54746215 -44.66846097 6.58218598 -32 1 C-31.24589844 0.6390625 -30.49179688 0.278125 -29.71484375 -0.09375 C-21.01973658 -3.71252293 -8.60286544 -3.40050272 0 0 Z " fill="#5080B3" transform="translate(118,2)"/>
<path d="M0 0 C1.98 0 3.96 0 6 0 C6.495 0.99 6.495 0.99 7 2 C2.38 2.99 -2.24 3.98 -7 5 C-5.68 5.66 -4.36 6.32 -3 7 C-2.34 7.66 -1.68 8.32 -1 9 C-5.29 9.66 -9.58 10.32 -14 11 C-14.268125 12.299375 -14.53625 13.59875 -14.8125 14.9375 C-15.26953125 17.15234375 -15.26953125 17.15234375 -16 19 C-16.99 19.33 -17.98 19.66 -19 20 C-19 20.66 -19 21.32 -19 22 C-20.65 22.66 -22.3 23.32 -24 24 C-23.54738642 22.56068883 -23.08767021 21.12361001 -22.625 19.6875 C-22.36976562 18.88699219 -22.11453125 18.08648437 -21.8515625 17.26171875 C-21 15 -21 15 -19 12 C-19.60328125 11.97421875 -20.2065625 11.9484375 -20.828125 11.921875 C-27.4373928 11.45283019 -27.4373928 11.45283019 -30.5625 8.9375 C-31.036875 8.298125 -31.51125 7.65875 -32 7 C-31.67 6.01 -31.34 5.02 -31 4 C-30.07102905 3.96241577 -30.07102905 3.96241577 -29.12329102 3.92407227 C-26.26955112 3.80677342 -23.41603559 3.68466414 -20.5625 3.5625 C-19.58861328 3.52318359 -18.61472656 3.48386719 -17.61132812 3.44335938 C-11.69938401 3.18631833 -5.87354003 2.72280379 0 2 C0 1.34 0 0.68 0 0 Z " fill="#27327B" transform="translate(61,29)"/>
<path d="M0 0 C0.66 0.33 1.32 0.66 2 1 C0.83857315 5.35535069 -0.07699505 7.64619703 -4 10 C-1.23735711 10.59732819 1.16032769 11 4 11 C4.33 10.34 4.66 9.68 5 9 C5.66 9 6.32 9 7 9 C6.8125 11.375 6.8125 11.375 6 14 C3.4375 15.3125 3.4375 15.3125 1 16 C1 16.99 1 17.98 1 19 C0.34 19 -0.32 19 -1 19 C-1.33 18.34 -1.66 17.68 -2 17 C-2.66 17.66 -3.32 18.32 -4 19 C-4 18.01 -4 17.02 -4 16 C-4.66 16 -5.32 16 -6 16 C-6 16.66 -6 17.32 -6 18 C-11.82254243 19.96818336 -16.83381819 21.40214229 -23 21 C-23 20.34 -23 19.68 -23 19 C-24.32 19 -25.64 19 -27 19 C-27.99 17.02 -28.98 15.04 -30 13 C-19.6 14.4 -19.6 14.4 -18 16 C-18 15.01 -18 14.02 -18 13 C-16.865625 12.566875 -15.73125 12.13375 -14.5625 11.6875 C-13.386875 11.130625 -12.21125 10.57375 -11 10 C-10.67 9.01 -10.34 8.02 -10 7 C-8.68 7.66 -7.36 8.32 -6 9 C-5.195625 8.071875 -4.39125 7.14375 -3.5625 6.1875 C-3.11003906 5.66542969 -2.65757813 5.14335938 -2.19140625 4.60546875 C-0.79128769 2.89287029 -0.79128769 2.89287029 0 0 Z " fill="#243A89" transform="translate(90,45)"/>
<path d="M0 0 C0 1.98 0 3.96 0 6 C-4.75 5.25 -4.75 5.25 -7 3 C-9.94928357 3.39392042 -9.94928357 3.39392042 -13.25 4.3125 C-20.34569273 6.11912223 -26.69887958 7.12588139 -34 7 C-34 6.67 -34 6.34 -34 6 C-36.97 5.67 -39.94 5.34 -43 5 C-43 4.67 -43 4.34 -43 4 C-42.05362671 3.83395264 -42.05362671 3.83395264 -41.08813477 3.66455078 C-38.24456501 3.16041453 -35.40359403 2.6428982 -32.5625 2.125 C-31.07266602 1.86396484 -31.07266602 1.86396484 -29.55273438 1.59765625 C-28.60849609 1.42363281 -27.66425781 1.24960937 -26.69140625 1.0703125 C-25.37958374 0.83465576 -25.37958374 0.83465576 -24.04125977 0.59423828 C-23.03083618 0.30009033 -23.03083618 0.30009033 -22 0 C-21.67 -0.66 -21.34 -1.32 -21 -2 C-13.59248754 -3.85187812 -6.61121934 -4.06844267 0 0 Z " fill="#323C6E" transform="translate(90,30)"/>
<path d="M0 0 C-1 3 -1 3 -4 5 C-4.78988145 6.95385067 -4.78988145 6.95385067 -5.1875 9.125 C-5.455625 10.40375 -5.72375 11.6825 -6 13 C-8.375 12.6875 -8.375 12.6875 -11 12 C-11.66 11.01 -12.32 10.02 -13 9 C-13.99 9 -14.98 9 -16 9 C-19.89505053 12.99648414 -22.72296095 17.93991322 -25 23 C-26.41655793 23.0272415 -27.83327045 23.04650467 -29.25 23.0625 C-30.43335937 23.07990234 -30.43335937 23.07990234 -31.640625 23.09765625 C-34 23 -34 23 -38 22 C-38 18.7 -38 15.4 -38 12 C-37.01 12.495 -37.01 12.495 -36 13 C-35.375 16.0625 -35.375 16.0625 -35 19 C-32.36 19.33 -29.72 19.66 -27 20 C-28.46884731 16.12758436 -30.49706804 15.02801324 -34 13 C-34 12.34 -34 11.68 -34 11 C-33.37351562 11.0721875 -32.74703125 11.144375 -32.1015625 11.21875 C-31.28429687 11.3115625 -30.46703125 11.404375 -29.625 11.5 C-28.81289062 11.5928125 -28.00078125 11.685625 -27.1640625 11.78125 C-25.03087175 12.03352351 -25.03087175 12.03352351 -23 12 C-20.37211797 9.69064913 -19.12005631 8.36016893 -18 5 C-15.1875 4.75 -15.1875 4.75 -12 5 C-9.95959224 7.04040776 -9 8.08325244 -9 11 C-8.34 11 -7.68 11 -7 11 C-7.103125 9.741875 -7.20625 8.48375 -7.3125 7.1875 C-7.32421875 4.98046875 -7.32421875 4.98046875 -7 3 C-4.59140121 0.97170628 -3.16955691 0 0 0 Z " fill="#1B2C63" transform="translate(110,160)"/>
<path d="M0 0 C0.99 0 1.98 0 3 0 C3.103125 0.94875 3.20625 1.8975 3.3125 2.875 C3.68539295 6.29107501 3.68539295 6.29107501 7 8 C6.67 9.65 6.34 11.3 6 13 C7.65 13.33 9.3 13.66 11 14 C10.01 18.29 9.02 22.58 8 27 C7.34 27 6.68 27 6 27 C5.67 27.66 5.34 28.32 5 29 C3.87410869 25.62232606 4.27201766 24.39725091 5 21 C5.0370279 19.3337447 5.04759962 17.66598681 5 16 C4.01 15.67 3.02 15.34 2 15 C2 14.34 2 13.68 2 13 C0.35 13 -1.3 13 -3 13 C-3.33 13.99 -3.66 14.98 -4 16 C-4 15.01 -4 14.02 -4 13 C-4.99 12.67 -5.98 12.34 -7 12 C-6.01 12 -5.02 12 -4 12 C-4 9.69 -4 7.38 -4 5 C-3.34 5 -2.68 5 -2 5 C-1.34 3.35 -0.68 1.7 0 0 Z M-2 9 C-2 9.66 -2 10.32 -2 11 C-1.01 11 -0.02 11 1 11 C1 10.34 1 9.68 1 9 C0.01 9 -0.98 9 -2 9 Z " fill="#1E2D69" transform="translate(94,24)"/>
<path d="M0 0 C4.14084507 1.38028169 4.14084507 1.38028169 6 4 C7.07191224 8.67047478 7.43042941 10.89318153 5.6875 15.375 C3.6934862 18.47679924 2.08421749 19.94385501 -1 22 C-4.6875 21.125 -4.6875 21.125 -8 20 C-7.195625 19.29875 -6.39125 18.5975 -5.5625 17.875 C-1.12472006 12.89602739 -1.89064555 7.34255809 -2 1 C-1.34 0.67 -0.68 0.34 0 0 Z " fill="#1C3789" transform="translate(93,36)"/>
<path d="M0 0 C9.30089159 4.32599609 15.09112455 10.52203604 18.8125 20.125 C22.42295537 32.43923172 21.63567487 46.07969319 17 58 C16.34 57.67 15.68 57.34 15 57 C15.2165625 55.9790625 15.2165625 55.9790625 15.4375 54.9375 C17.78994005 42.65253531 17.46958767 30.38652463 16 18 C15.34 18 14.68 18 14 18 C13.34 16.02 12.68 14.04 12 12 C11.34 12 10.68 12 10 12 C9.67 11.34 9.34 10.68 9 10 C6.97536745 9.34786708 6.97536745 9.34786708 5 9 C5 7.68 5 6.36 5 5 C3.68 4.67 2.36 4.34 1 4 C0.67 2.68 0.34 1.36 0 0 Z " fill="#4E719F" transform="translate(119,3)"/>
<path d="M0 0 C0.33 0.66 0.66 1.32 1 2 C2.98 2 4.96 2 7 2 C7 2.33 7 2.66 7 3 C10.3 3 13.6 3 17 3 C17 2.67 17 2.34 17 2 C14.69 1.67 12.38 1.34 10 1 C10 0.67 10 0.34 10 0 C12.43757413 -0.02698422 14.87484915 -0.04683099 17.3125 -0.0625 C18.00279297 -0.07087891 18.69308594 -0.07925781 19.40429688 -0.08789062 C22.5483025 -0.10307906 24.99420019 -0.00193327 28 1 C28 1.99 28 2.98 28 4 C28.99 4 29.98 4 31 4 C31 5.98 31 7.96 31 10 C27.89457794 9.5147778 25.43880506 8.75732111 22.53125 7.5 C17.27161187 5.49813453 12.07404418 5.44051283 6.5 5.3125 C5.48679687 5.27833984 4.47359375 5.24417969 3.4296875 5.20898438 C0.95323583 5.12721474 -1.52289349 5.0578375 -4 5 C-3.6875 3.0625 -3.6875 3.0625 -3 1 C-2.01 0.67 -1.02 0.34 0 0 Z " fill="#5094D2" transform="translate(89,5)"/>
<path d="M0 0 C-0.66 0.66 -1.32 1.32 -2 2 C-3.34186593 1.70287254 -4.67310042 1.35808714 -6 1 C-8.59677007 0.87915464 -11.15366259 0.80950123 -13.75 0.8125 C-14.82145264 0.8137085 -14.82145264 0.8137085 -15.91455078 0.81494141 C-24.69178757 0.80187997 -24.69178757 0.80187997 -32 5 C-34.3828125 5.6328125 -34.3828125 5.6328125 -37.125 6.125 C-38.03507812 6.29257813 -38.94515625 6.46015625 -39.8828125 6.6328125 C-40.58148438 6.75398437 -41.28015625 6.87515625 -42 7 C-42 7.66 -42 8.32 -42 9 C-42.99 9 -43.98 9 -45 9 C-45.33 9.99 -45.66 10.98 -46 12 C-46.99 12 -47.98 12 -49 12 C-49.33 12.99 -49.66 13.98 -50 15 C-50.99 14.67 -51.98 14.34 -53 14 C-49.17918352 9.7497119 -45.38568013 7.32440782 -40.25 4.875 C-39.53191162 4.52953125 -38.81382324 4.1840625 -38.07397461 3.828125 C-36.05599635 2.87020802 -34.02948731 1.93320896 -32 1 C-30.78763672 0.41605469 -30.78763672 0.41605469 -29.55078125 -0.1796875 C-20.92458328 -3.73862969 -8.507965 -3.36299089 0 0 Z " fill="#4E719C" transform="translate(118,2)"/>
<path d="M0 0 C1.32 0.33 2.64 0.66 4 1 C3.67 2.32 3.34 3.64 3 5 C2.34 5 1.68 5 1 5 C0.67 5.99 0.34 6.98 0 8 C-1.55859375 9.60546875 -1.55859375 9.60546875 -3.4375 11.1875 C-4.05496094 11.71730469 -4.67242187 12.24710938 -5.30859375 12.79296875 C-7 14 -7 14 -9 14 C-9 14.66 -9 15.32 -9 16 C-14.75 19 -14.75 19 -17 19 C-17.33 19.66 -17.66 20.32 -18 21 C-21.0625 21.625 -21.0625 21.625 -24 22 C-21.94947348 19.08194303 -20.49110798 17.2358153 -17.2421875 15.67578125 C-13.48657893 13.73462935 -10.79683125 11.3860688 -7.75 8.5 C-7.22148438 8.01402344 -6.69296875 7.52804688 -6.1484375 7.02734375 C-3.75124367 4.79442463 -1.82565483 2.73848225 0 0 Z " fill="#6C87BB" transform="translate(110,92)"/>
<path d="M0 0 C-0.33 1.32 -0.66 2.64 -1 4 C-7.74153283 5.25841946 -14.13484138 6.26404456 -21 6 C-21 5.67 -21 5.34 -21 5 C-23.97 4.67 -26.94 4.34 -30 4 C-30 3.67 -30 3.34 -30 3 C-26.69191052 2.29005712 -23.37812399 1.61129884 -20.0625 0.9375 C-19.13630859 0.73833984 -18.21011719 0.53917969 -17.25585938 0.33398438 C-11.14076612 -0.88903428 -6.16090317 -1.00470113 0 0 Z " fill="#1A2A64" transform="translate(77,31)"/>
<path d="M0 0 C3.25191971 3.16158861 6.41314919 6.26343772 9 10 C9 11.32 9 12.64 9 14 C9.66 14 10.32 14 11 14 C11.95376567 17.20782086 12.11621181 20.08187396 12.09765625 23.421875 C12.09443359 24.44667969 12.09121094 25.47148438 12.08789062 26.52734375 C12.07951172 27.59082031 12.07113281 28.65429688 12.0625 29.75 C12.05798828 30.82894531 12.05347656 31.90789063 12.04882812 33.01953125 C12.03705727 35.67974383 12.02061399 38.33984365 12 41 C11.34 41 10.68 41 10 41 C9.67 41.66 9.34 42.32 9 43 C9.01571045 42.41621582 9.0314209 41.83243164 9.04760742 41.23095703 C9.11082028 38.52907405 9.14925923 35.82734741 9.1875 33.125 C9.21263672 32.2071875 9.23777344 31.289375 9.26367188 30.34375 C9.36068958 21.15940753 7.5229884 13.54326595 2.3125 5.875 C1.68988281 4.94429687 1.06726563 4.01359375 0.42578125 3.0546875 C-0.04472656 2.37664063 -0.51523438 1.69859375 -1 1 C-0.67 0.67 -0.34 0.34 0 0 Z " fill="#5A7AA3" transform="translate(119,18)"/>
<path d="M0 0 C3.1875 -0.375 3.1875 -0.375 7 0 C9.75 2.875 9.75 2.875 12 6 C12.99 6.66 13.98 7.32 15 8 C14.67 8.99 14.34 9.98 14 11 C13.34 11 12.68 11 12 11 C12.33 12.32 12.66 13.64 13 15 C11.35 14.67 9.7 14.34 8 14 C8 13.01 8 12.02 8 11 C7.34 11 6.68 11 6 11 C5.34 8.69 4.68 6.38 4 4 C4.33 3.67 4.66 3.34 5 3 C2.525 2.01 2.525 2.01 0 1 C0 0.67 0 0.34 0 0 Z " fill="#203A7A" transform="translate(67,41)"/>
<path d="M0 0 C1.47436523 0.07734375 1.47436523 0.07734375 2.97851562 0.15625 C4.00267578 0.22070312 5.02683594 0.28515625 6.08203125 0.3515625 C7.63567383 0.43664062 7.63567383 0.43664062 9.22070312 0.5234375 C11.77934396 0.66492916 14.33700609 0.81634116 16.89453125 0.9765625 C16.89453125 1.3065625 16.89453125 1.6365625 16.89453125 1.9765625 C15.24453125 2.3065625 13.59453125 2.6365625 11.89453125 2.9765625 C12.88453125 3.9665625 13.87453125 4.9565625 14.89453125 5.9765625 C11.93595716 6.03035476 8.97835404 6.07013343 6.01953125 6.1015625 C4.75689453 6.12669922 4.75689453 6.12669922 3.46875 6.15234375 C2.66308594 6.15878906 1.85742188 6.16523438 1.02734375 6.171875 C0.28371582 6.18234863 -0.45991211 6.19282227 -1.22607422 6.20361328 C-3.10546875 5.9765625 -3.10546875 5.9765625 -5.10546875 3.9765625 C-6.09546875 4.4715625 -6.09546875 4.4715625 -7.10546875 4.9765625 C-7.43546875 3.9865625 -7.76546875 2.9965625 -8.10546875 1.9765625 C-4.7389507 -0.26778287 -3.88949887 -0.22482652 0 0 Z " fill="#488AC9" transform="translate(95.10546875,3.0234375)"/>
<path d="M0 0 C0.33 0.66 0.66 1.32 1 2 C-0.85409774 6.5734411 -3.72315697 8.24423427 -7.8046875 10.59375 C-10.95936425 12.61453938 -13.55525552 15.14079542 -16.23828125 17.7421875 C-16.81964844 18.15726563 -17.40101562 18.57234375 -18 19 C-18.99 18.67 -19.98 18.34 -21 18 C-20.01 16.68 -19.02 15.36 -18 14 C-17.34 14.33 -16.68 14.66 -16 15 C-15.67 14.01 -15.34 13.02 -15 12 C-14.34 12 -13.68 12 -13 12 C-12.67 10.02 -12.34 8.04 -12 6 C-11.319375 5.938125 -10.63875 5.87625 -9.9375 5.8125 C-5.96821063 4.71461145 -3.21360445 2.50976025 0 0 Z " fill="#21306A" transform="translate(141,131)"/>
<path d="M0 0 C1.32 0 2.64 0 4 0 C4 0.66 4 1.32 4 2 C4.763125 1.979375 5.52625 1.95875 6.3125 1.9375 C9 2 9 2 12 3 C13.66621616 3.03874921 15.33394172 3.0450286 17 3 C17 3.66 17 4.32 17 5 C8.57142857 7.28571429 8.57142857 7.28571429 4 7 C4 8.98 4 10.96 4 13 C1.12420019 8.68630028 0 5.19265239 0 0 Z " fill="#2C3F88" transform="translate(63,64)"/>
<path d="M0 0 C0.33 0.99 0.66 1.98 1 3 C2.98 2.67 4.96 2.34 7 2 C6.28070313 2.57105469 5.56140625 3.14210938 4.8203125 3.73046875 C3.00581724 5.19060967 1.20733351 6.6709958 -0.5703125 8.17578125 C-1.41335937 8.88089844 -2.25640625 9.58601563 -3.125 10.3125 C-3.97320312 11.03050781 -4.82140625 11.74851562 -5.6953125 12.48828125 C-6.83613281 13.23658203 -6.83613281 13.23658203 -8 14 C-8.99 13.67 -9.98 13.34 -11 13 C-8.72126867 7.61390776 -4.84467788 3.22978525 0 0 Z " fill="#55719C" transform="translate(63,17)"/>
<path d="M0 0 C0.33 0 0.66 0 1 0 C1 6.27 1 12.54 1 19 C1.66 19 2.32 19 3 19 C3.33 18.01 3.66 17.02 4 16 C3.5985973 18.8098189 3.11503987 20.81175293 1.625 23.25 C-0.20387953 26.3450269 -1.42963819 29.44686975 -2.6875 32.8125 C-3.12449219 33.97394531 -3.56148438 35.13539062 -4.01171875 36.33203125 C-4.33785156 37.21246094 -4.66398437 38.09289062 -5 39 C-5.66 39 -6.32 39 -7 39 C-6.505 36.03 -6.505 36.03 -6 33 C-5.34 33 -4.68 33 -4 33 C-3.34 28.38 -2.68 23.76 -2 19 C-1.34 19 -0.68 19 0 19 C0 12.73 0 6.46 0 0 Z " fill="#5888BF" transform="translate(131,40)"/>
<path d="M0 0 C0 0.33 0 0.66 0 1 C-2.64 1.33 -5.28 1.66 -8 2 C-8.268125 3.299375 -8.53625 4.59875 -8.8125 5.9375 C-9.26953125 8.15234375 -9.26953125 8.15234375 -10 10 C-10.99 10.33 -11.98 10.66 -13 11 C-13 11.66 -13 12.32 -13 13 C-14.65 13.66 -16.3 14.32 -18 15 C-17.27224442 12.77306794 -16.53573646 10.55008173 -15.78125 8.33203125 C-15.19005424 6.5673119 -14.64611203 4.78666982 -14.125 3 C-13 1 -13 1 -10.875 0.1875 C-7.23447702 -0.04992541 -3.64845963 -0.0618383 0 0 Z " fill="#575B7C" transform="translate(55,38)"/>
<path d="M0 0 C1.33332095 2.6666419 0.67102033 4.16680303 0 7 C1.1446875 7.185625 1.1446875 7.185625 2.3125 7.375 C5 8 5 8 8 10 C7.67 10.99 7.34 11.98 7 13 C6.67 12.34 6.34 11.68 6 11 C3.6739143 10.61936779 1.33944736 10.28730055 -1 10 C-1.66 9.67 -2.32 9.34 -3 9 C-3 9.66 -3 10.32 -3 11 C-2.34 11.33 -1.68 11.66 -1 12 C-1.99 12 -2.98 12 -4 12 C-4.33 12.66 -4.66 13.32 -5 14 C-5.33 13.01 -5.66 12.02 -6 11 C-6.33 12.98 -6.66 14.96 -7 17 C-7.33 17 -7.66 17 -8 17 C-8.84256009 10.25951931 -8.84256009 10.25951931 -6.4765625 6.72265625 C-4.7149418 4.73454146 -2.91428197 2.84083231 -1 1 C-0.67 0.67 -0.34 0.34 0 0 Z " fill="#2A3E7D" transform="translate(79,162)"/>
<path d="M0 0 C10.4 1.4 10.4 1.4 12 3 C12 2.01 12 1.02 12 0 C12.99 0.33 13.98 0.66 15 1 C14.34 1 13.68 1 13 1 C13 1.66 13 2.32 13 3 C13.66 3.33 14.32 3.66 15 4 C14.01 4 13.02 4 12 4 C12.33 4.66 12.66 5.32 13 6 C14.65 6 16.3 6 18 6 C14.36576791 8.32590854 11.22911669 8.16265833 7 8 C7 7.34 7 6.68 7 6 C5.68 6 4.36 6 3 6 C2.01 4.02 1.02 2.04 0 0 Z " fill="#455590" transform="translate(60,58)"/>
<path d="M0 0 C1.98 0 3.96 0 6 0 C6.495 0.99 6.495 0.99 7 2 C-1.20433928 3.92289202 -9.29966281 5.4189932 -17.66796875 6.35302734 C-20.2753651 6.64603022 -22.75390878 6.92642634 -25.2734375 7.6796875 C-27 8 -27 8 -30 6 C-30.33 6.99 -30.66 7.98 -31 9 C-31.33 7.68 -31.66 6.36 -32 5 C-29.28581741 4.09527247 -27.45892488 3.83005643 -24.6484375 3.71875 C-23.79636719 3.68136719 -22.94429687 3.64398438 -22.06640625 3.60546875 C-20.73416016 3.55326172 -20.73416016 3.55326172 -19.375 3.5 C-12.87122333 3.23829811 -6.46316363 2.78659192 0 2 C0 1.34 0 0.68 0 0 Z " fill="#434878" transform="translate(61,29)"/>
<path d="M0 0 C2.15377564 2.62198774 3.40072174 4.64404172 4 8 C5.65 6.68 7.3 5.36 9 4 C9.6875 5.75 9.6875 5.75 10 8 C8.5625 10.25 8.5625 10.25 7 12 C6.34 11.67 5.68 11.34 5 11 C3.05003955 11.80767387 3.05003955 11.80767387 1 13 C-0.33333333 13.66666667 -1.66666667 14.33333333 -3 15 C-3 14.01 -3 13.02 -3 12 C-1 10.3125 -1 10.3125 1 9 C-0.98 9.66 -2.96 10.32 -5 11 C-3.6875 9 -3.6875 9 -2 7 C-1.01 7 -0.02 7 1 7 C0.67 4.69 0.34 2.38 0 0 Z " fill="#474B7C" transform="translate(136,122)"/>
<path d="M0 0 C2.5 1.625 2.5 1.625 5 4 C5.3125 7.25 5.3125 7.25 5 10 C5.99 9.67 6.98 9.34 8 9 C11.53586014 12.17320782 13.58578031 14.16743695 14 19 C12.02 19.99 12.02 19.99 10 21 C9.34 19.35 8.68 17.7 8 16 C8.66 16 9.32 16 10 16 C8.60804085 13.2160817 6.84424221 13.02101003 4 12 C3.896875 10.906875 3.79375 9.81375 3.6875 8.6875 C3.00272798 5.01463192 2.72080696 4.24762314 0 2 C0 1.34 0 0.68 0 0 Z " fill="#182C6A" transform="translate(97,73)"/>
<path d="M0 0 C7.07611446 3.29121603 12.07747658 7.22321485 16 14 C16 14.66 16 15.32 16 16 C14.68 15.34 13.36 14.68 12 14 C12 13.34 12 12.68 12 12 C11.34 12 10.68 12 10 12 C9.67 11.34 9.34 10.68 9 10 C6.97536745 9.34786708 6.97536745 9.34786708 5 9 C5 7.68 5 6.36 5 5 C3.68 4.67 2.36 4.34 1 4 C0.67 2.68 0.34 1.36 0 0 Z " fill="#6080A9" transform="translate(119,3)"/>
<path d="M0 0 C2.58340384 -0.02703562 5.16652308 -0.04685611 7.75 -0.0625 C8.47960937 -0.07087891 9.20921875 -0.07925781 9.9609375 -0.08789062 C15.58975134 -0.11347614 15.58975134 -0.11347614 18.05566406 0.56860352 C20.19963116 1.21912889 20.19963116 1.21912889 23 0 C23.33 1.65 23.66 3.3 24 5 C23.01 5.33 22.02 5.66 21 6 C21 5.34 21 4.68 21 4 C16.57317509 2.9609622 12.21065368 2.68407049 7.6875 2.4375 C6.94693359 2.39431641 6.20636719 2.35113281 5.44335938 2.30664062 C3.62908536 2.20129568 1.8145645 2.10021684 0 2 C0 1.34 0 0.68 0 0 Z " fill="#588CBF" transform="translate(96,2)"/>
<path d="M0 0 C0.99 0.495 0.99 0.495 2 1 C2.625 4.0625 2.625 4.0625 3 7 C6.3 7.33 9.6 7.66 13 8 C13 8.99 13 9.98 13 11 C11.58344207 11.0272415 10.16672955 11.04650467 8.75 11.0625 C7.56664063 11.07990234 7.56664063 11.07990234 6.359375 11.09765625 C4 11 4 11 0 10 C0 6.7 0 3.4 0 0 Z " fill="#1A1B44" transform="translate(72,172)"/>
<path d="M0 0 C0.6875 1.6875 0.6875 1.6875 1 4 C-0.4375 6.75 -0.4375 6.75 -2 9 C-5.465 7.02 -5.465 7.02 -9 5 C-9 4.34 -9 3.68 -9 3 C-5.63316085 0.56839395 -4.26649636 0 0 0 Z " fill="#262C52" transform="translate(108,25)"/>
<path d="M0 0 C-1 3 -1 3 -4 5 C-4.78988145 6.95385067 -4.78988145 6.95385067 -5.1875 9.125 C-5.455625 10.40375 -5.72375 11.6825 -6 13 C-8.3125 12.8125 -8.3125 12.8125 -11 12 C-14 7.96551724 -14 7.96551724 -14 5 C-13.34 5 -12.68 5 -12 5 C-9 8.46153846 -9 8.46153846 -9 11 C-8.34 11 -7.68 11 -7 11 C-7.103125 9.741875 -7.20625 8.48375 -7.3125 7.1875 C-7.32421875 4.98046875 -7.32421875 4.98046875 -7 3 C-4.59140121 0.97170628 -3.16955691 0 0 0 Z " fill="#282F5E" transform="translate(110,160)"/>
<path d="M0 0 C0.33 0 0.66 0 1 0 C2.125 5.75 2.125 5.75 1 8 C1.60328125 7.84402344 2.2065625 7.68804687 2.828125 7.52734375 C3.62734375 7.33269531 4.4265625 7.13804687 5.25 6.9375 C6.03890625 6.74027344 6.8278125 6.54304687 7.640625 6.33984375 C10.14225195 5.97951007 11.63820291 6.14486657 14 7 C15.75 8.5625 15.75 8.5625 17 10 C15.02 10 13.04 10 11 10 C11 9.34 11 8.68 11 8 C7.64566891 8.94933899 4.30753495 9.89748835 1 11 C0.26676204 13.01508358 0.26676204 13.01508358 0 15 C-1.14229879 11.57310364 -0.90861076 9.38897782 -0.5625 5.8125 C-0.46066406 4.72582031 -0.35882813 3.63914062 -0.25390625 2.51953125 C-0.17011719 1.68808594 -0.08632812 0.85664062 0 0 Z " fill="#254091" transform="translate(103,124)"/>
<path d="M0 0 C4.33333333 0 8.66666667 0 13 0 C12.67 0.66 12.34 1.32 12 2 C11.01 2 10.02 2 9 2 C9.66 2.33 10.32 2.66 11 3 C11 3.66 11 4.32 11 5 C9.54176788 5.0270043 8.08339325 5.04639787 6.625 5.0625 C5.81289063 5.07410156 5.00078125 5.08570313 4.1640625 5.09765625 C2 5 2 5 0 4 C0 2.68 0 1.36 0 0 Z " fill="#1B2D67" transform="translate(31,35)"/>
<path d="M0 0 C0.66 0 1.32 0 2 0 C2.66 1.98 3.32 3.96 4 6 C6.31 6 8.62 6 11 6 C11 6.66 11 7.32 11 8 C9.35 8 7.7 8 6 8 C5.67 9.65 5.34 11.3 5 13 C4.34 13 3.68 13 3 13 C0.89172945 9.83759418 0.66182535 8.49342531 0.375 4.8125 C0.30023438 3.91144531 0.22546875 3.01039063 0.1484375 2.08203125 C0.09945312 1.39496094 0.05046875 0.70789063 0 0 Z " fill="#1F3C91" transform="translate(86,157)"/>
<path d="M0 0 C0.99 0.33 1.98 0.66 3 1 C4.2684375 1.309375 4.2684375 1.309375 5.5625 1.625 C8 3 8 3 9.1875 6.5625 C9.455625 7.696875 9.72375 8.83125 10 10 C10.66 10.33 11.32 10.66 12 11 C12.625 14.0625 12.625 14.0625 13 17 C12.34 17 11.68 17 11 17 C10.814375 16.34 10.62875 15.68 10.4375 15 C8.7026605 11.3794654 6.38242637 8.88162144 3.65625 5.96484375 C2.04545844 4.0539283 1.0128931 2.27394502 0 0 Z " fill="#5089C2" transform="translate(117,15)"/>
<path d="M0 0 C0.66 0 1.32 0 2 0 C2 0.66 2 1.32 2 2 C2.99 2 3.98 2 5 2 C7.09350689 5.4019487 7.17942163 8.05272412 7 12 C5.68 12.33 4.36 12.66 3 13 C2.86722656 12.31292969 2.73445313 11.62585938 2.59765625 10.91796875 C2.42105469 10.01691406 2.24445313 9.11585937 2.0625 8.1875 C1.88847656 7.29417969 1.71445313 6.40085937 1.53515625 5.48046875 C1.02258847 2.88602829 1.02258847 2.88602829 0 0 Z " fill="#28356A" transform="translate(87,96)"/>
<path d="M0 0 C-0.33 0.66 -0.66 1.32 -1 2 C0.98 2 2.96 2 5 2 C4 3.5 4 3.5 2 5 C-0.71846235 5.27345479 -3.25677199 5.13491285 -6 5 C-6 4.67 -6 4.34 -6 4 C-8.97 3.67 -11.94 3.34 -15 3 C-15 2.67 -15 2.34 -15 2 C-13.43883181 1.66048381 -11.87598662 1.32867456 -10.3125 1 C-9.44238281 0.814375 -8.57226562 0.62875 -7.67578125 0.4375 C-5.06287036 0.01027953 -2.64186962 -0.07616201 0 0 Z " fill="#122263" transform="translate(62,32)"/>
<path d="M0 0 C3.10442031 1.3904499 5.3656443 3.01571598 7.8125 5.375 C8.43769531 5.96023437 9.06289062 6.54546875 9.70703125 7.1484375 C11 9 11 9 10.69921875 11.2265625 C10.46847656 11.81179687 10.23773438 12.39703125 10 13 C8.5 11.625 8.5 11.625 7 10 C7 9.34 7 8.68 7 8 C6.01 8 5.02 8 4 8 C3.67 6.68 3.34 5.36 3 4 C2.01 4 1.02 4 0 4 C0 2.68 0 1.36 0 0 Z " fill="#172761" transform="translate(118,99)"/>
<path d="M0 0 C1 3 1 3 1 6 C2.66719298 7.73368264 2.66719298 7.73368264 4.8125 9.375 C7.92201746 11.98280454 10.36762241 14.19111895 12 18 C11.67 18.66 11.34 19.32 11 20 C10.01 20 9.02 20 8 20 C7.835 18.989375 7.67 17.97875 7.5 16.9375 C6.09655555 11.80550164 2.07295376 9.11628322 -2 6 C-1.34 4.02 -0.68 2.04 0 0 Z " fill="#3B4971" transform="translate(94,63)"/>
<path d="M0 0 C-3.26545761 1.88391785 -6.28111761 2.49287967 -10 3 C-10 3.66 -10 4.32 -10 5 C-10.99 5 -11.98 5 -13 5 C-13.33 5.99 -13.66 6.98 -14 8 C-14.99 8 -15.98 8 -17 8 C-17.33 8.99 -17.66 9.98 -18 11 C-18.99 10.67 -19.98 10.34 -21 10 C-15.96867717 4.10120772 -8.00732475 -2.46602393 0 0 Z " fill="#577EA5" transform="translate(86,6)"/>
<path d="M0 0 C1.98 0 3.96 0 6 0 C5.2575 1.175625 5.2575 1.175625 4.5 2.375 C2.83462035 4.78552327 2.83462035 4.78552327 3 7 C4.65 6.67 6.3 6.34 8 6 C3.25 10.875 3.25 10.875 1 12 C-0.47075246 7.58774263 -1.36884358 4.51718381 0 0 Z " fill="#1E3C94" transform="translate(93,96)"/>
<path d="M0 0 C0.1875 2.375 0.1875 2.375 0 5 C-3.18762365 7.12508244 -5.26512223 7.5020163 -9 8 C-8.67 6.02 -8.34 4.04 -8 2 C-2.25 0 -2.25 0 0 0 Z " fill="#2A376D" transform="translate(81,57)"/>
<path d="M0 0 C0 1.66666667 0 3.33333333 0 5 C-0.66 5 -1.32 5 -2 5 C-1.835 6.093125 -1.67 7.18625 -1.5 8.3125 C-1 12 -1 12 -1 15 C-1.99 14.67 -2.98 14.34 -4 14 C-5.20776206 10.37671381 -5.40040892 7.80388473 -5 4 C-2.5 1.5625 -2.5 1.5625 0 0 Z " fill="#1E3069" transform="translate(63,43)"/>
<path d="M0 0 C0.99 0 1.98 0 3 0 C2.1654738 2.50357861 1.20628008 4.66785852 0 7 C-0.99 7 -1.98 7 -3 7 C-2.34 8.98 -1.68 10.96 -1 13 C-1.66 13 -2.32 13 -3 13 C-3.33 13.99 -3.66 14.98 -4 16 C-4 15.01 -4 14.02 -4 13 C-4.99 12.67 -5.98 12.34 -7 12 C-6.01 12 -5.02 12 -4 12 C-4 9.69 -4 7.38 -4 5 C-3.34 5 -2.68 5 -2 5 C-1.34 3.35 -0.68 1.7 0 0 Z " fill="#474873" transform="translate(94,24)"/>
<path d="M0 0 C2.375 0 2.375 0 5 1 C6.625 4.3125 6.625 4.3125 8 8 C9.56328365 10.33878876 9.56328365 10.33878876 11 12 C8.09220751 10.65843569 5.7482101 9.13892965 3.3125 7.0625 C2.71050781 6.55847656 2.10851562 6.05445312 1.48828125 5.53515625 C0 4 0 4 -1 1 C-0.67 0.67 -0.34 0.34 0 0 Z " fill="#323E79" transform="translate(75,83)"/>
<path d="M0 0 C0.66 0 1.32 0 2 0 C2.05423638 1.91635217 2.09289963 3.83314925 2.125 5.75 C2.14820312 6.81734375 2.17140625 7.8846875 2.1953125 8.984375 C2.00487687 11.92470106 1.52670104 13.52361878 0 16 C-0.66 16 -1.32 16 -2 16 C-2.33 17.32 -2.66 18.64 -3 20 C-3.99 19.34 -4.98 18.68 -6 18 C-5.195625 17.46375 -4.39125 16.9275 -3.5625 16.375 C-0.41762958 13.46024205 -0.24339632 12.21886956 0 8 C0.05789617 5.32712703 0.04611307 2.67455786 0 0 Z " fill="#162864" transform="translate(91,37)"/>
<path d="M0 0 C3 1 3 1 4.625 3 C6.43791989 6.95546158 6.72790419 10.69338012 7 15 C6.34 14.67 5.68 14.34 5 14 C5 12.68 5 11.36 5 10 C4.34 10 3.68 10 3 10 C2.01 6.7 1.02 3.4 0 0 Z " fill="#1D2C61" transform="translate(130,114)"/>
<path d="M0 0 C0.99 0 1.98 0 3 0 C3 0.66 3 1.32 3 2 C1.390625 3.55078125 1.390625 3.55078125 -0.75 5.3125 C-3.26689662 7.43129346 -5.18123479 9.23819429 -7.1875 11.875 C-9.36448972 14.42733278 -10.71620875 14.72635073 -14 15 C-13.34 14.34 -12.68 13.68 -12 13 C-11.55140625 12.55011719 -11.1028125 12.10023437 -10.640625 11.63671875 C-9.40606606 10.40509924 -8.16543911 9.17955762 -6.921875 7.95703125 C-6.20515625 7.24933594 -5.4884375 6.54164062 -4.75 5.8125 C-4.06421875 5.13832031 -3.3784375 4.46414062 -2.671875 3.76953125 C-0.92550889 2.09201005 -0.92550889 2.09201005 0 0 Z " fill="#AECEF4" transform="translate(109,93)"/>
<path d="M0 0 C8.19256018 1.17286652 8.19256018 1.17286652 11.5625 4.625 C12.2740625 5.800625 12.2740625 5.800625 13 7 C12.67 7.66 12.34 8.32 12 9 C9.03 7.35 6.06 5.7 3 4 C3 3.34 3 2.68 3 2 C2.01 1.67 1.02 1.34 0 1 C0 0.67 0 0.34 0 0 Z " fill="#4F79AD" transform="translate(105,10)"/>
<path d="M0 0 C7.42857143 1 7.42857143 1 11 2 C10.01 2 9.02 2 8 2 C7.67 2.66 7.34 3.32 7 4 C7.33 4.33 7.66 4.66 8 5 C9 6 10 7 11 8 C9.68 8 8.36 8 7 8 C7 7.34 7 6.68 7 6 C5.68 6 4.36 6 3 6 C2.01 4.02 1.02 2.04 0 0 Z " fill="#6073AC" transform="translate(60,58)"/>
<path d="M0 0 C1.32 0.33 2.64 0.66 4 1 C4 2.32 4 3.64 4 5 C5.65 5.33 7.3 5.66 9 6 C9 6.66 9 7.32 9 8 C6.69 7.67 4.38 7.34 2 7 C1.34 4.69 0.68 2.38 0 0 Z " fill="#5A94CF" transform="translate(120,7)"/>
<path d="M0 0 C0.70125 0.268125 1.4025 0.53625 2.125 0.8125 C1.795 1.8025 1.465 2.7925 1.125 3.8125 C0.465 3.1525 -0.195 2.4925 -0.875 1.8125 C-1.535 1.8125 -2.195 1.8125 -2.875 1.8125 C-3.101875 2.616875 -3.32875 3.42125 -3.5625 4.25 C-4.2121875 5.5184375 -4.2121875 5.5184375 -4.875 6.8125 C-7.5 7.625 -7.5 7.625 -9.875 7.8125 C-8.33187935 3.18313805 -5.09504874 -0.33228579 0 0 Z " fill="#213F80" transform="translate(116.875,95.1875)"/>
<path d="M0 0 C1.231394 3.69418201 0.64432764 6.2056261 0 10 C-1.65 10 -3.3 10 -5 10 C-5.33 9.01 -5.66 8.02 -6 7 C-5.01 6.34 -4.02 5.68 -3 5 C-1.94895617 3.36504293 -0.94011682 1.70116376 0 0 Z " fill="#213A8F" transform="translate(85,159)"/>
<path d="M0 0 C0.8971875 0.309375 0.8971875 0.309375 1.8125 0.625 C1.31878906 1.03492188 0.82507813 1.44484375 0.31640625 1.8671875 C-0.32425781 2.40601563 -0.96492188 2.94484375 -1.625 3.5 C-2.26308594 4.03367188 -2.90117188 4.56734375 -3.55859375 5.1171875 C-5.29555004 6.5472757 -5.29555004 6.5472757 -6.1875 8.625 C-7.1775 8.295 -8.1675 7.965 -9.1875 7.625 C-8.5275 7.295 -7.8675 6.965 -7.1875 6.625 C-6.878125 5.820625 -6.56875 5.01625 -6.25 4.1875 C-4.9230072 0.98710561 -3.63399938 -0.62297132 0 0 Z " fill="#293A6F" transform="translate(118.1875,152.375)"/>
<path d="M0 0 C1.65 0.99 3.3 1.98 5 3 C4.67 5.31 4.34 7.62 4 10 C3.67 9.34 3.34 8.68 3 8 C0.97536745 7.34786708 0.97536745 7.34786708 -1 7 C-0.01 7 0.98 7 2 7 C2 6.34 2 5.68 2 5 C0.02 5.33 -1.96 5.66 -4 6 C-3.34 5.566875 -2.68 5.13375 -2 4.6875 C-1.01 3.8521875 -1.01 3.8521875 0 3 C0 2.01 0 1.02 0 0 Z " fill="#52629B" transform="translate(79,52)"/>
<path d="M0 0 C0.66 1.32 1.32 2.64 2 4 C1.01 4.495 1.01 4.495 0 5 C0 5.66 0 6.32 0 7 C-1.65 7.66 -3.3 8.32 -5 9 C-3.375 2.25 -3.375 2.25 0 0 Z " fill="#4D425C" transform="translate(42,44)"/>
<path d="M0 0 C1.65 1.32 3.3 2.64 5 4 C4.67 5.65 4.34 7.3 4 9 C5.65 9.33 7.3 9.66 9 10 C8.67 10.66 8.34 11.32 8 12 C6.02 11.34 4.04 10.68 2 10 C2.04125 9.21625 2.0825 8.4325 2.125 7.625 C2.28728734 4.83883881 2.28728734 4.83883881 0 3 C0 2.01 0 1.02 0 0 Z " fill="#495579" transform="translate(96,28)"/>
<path d="M0 0 C0.99 0 1.98 0 3 0 C5.10575375 5.52760359 6.37851209 10.06997733 6 16 C5.67 16 5.34 16 5 16 C5 14.35 5 12.7 5 11 C4.34 11 3.68 11 3 11 C2.67 8.03 2.34 5.06 2 2 C1.34 2 0.68 2 0 2 C0 1.34 0 0.68 0 0 Z " fill="#577595" transform="translate(133,19)"/>
<path d="M0 0 C1.32 0 2.64 0 4 0 C4.33 1.65 4.66 3.3 5 5 C2.69 5.66 0.38 6.32 -2 7 C-2 5.68 -2 4.36 -2 3 C-1.34 3 -0.68 3 0 3 C0 2.01 0 1.02 0 0 Z " fill="#213891" transform="translate(131,124)"/>
<path d="M0 0 C0.66 0 1.32 0 2 0 C2 0.99 2 1.98 2 3 C3.32 3.66 4.64 4.32 6 5 C5.67 5.99 5.34 6.98 5 8 C2.11562221 6.70700306 0.12780579 5.34058637 -2 3 C-1 1 -1 1 0 0 Z " fill="#2D3F78" transform="translate(69,76)"/>
<path d="M0 0 C-0.6796875 1.953125 -0.6796875 1.953125 -2 4 C-4.3828125 4.609375 -4.3828125 4.609375 -7.125 4.75 C-8.03507812 4.80671875 -8.94515625 4.8634375 -9.8828125 4.921875 C-10.58148438 4.94765625 -11.28015625 4.9734375 -12 5 C-8.79548473 1.42309458 -4.84159175 0 0 0 Z " fill="#17306D" transform="translate(83,63)"/>
<path d="M0 0 C0.66 0.33 1.32 0.66 2 1 C1.96744792 3.01822917 1.93489583 5.03645833 1.90234375 7.0546875 C1.87350758 9.08185404 1.87350758 9.08185404 3 11 C2.01 11 1.02 11 0 11 C-0.33 9.35 -0.66 7.7 -1 6 C-1.99 6.495 -1.99 6.495 -3 7 C-1.125 1.125 -1.125 1.125 0 0 Z " fill="#192D73" transform="translate(91,60)"/>
<path d="M0 0 C0.66 0.33 1.32 0.66 2 1 C1.01 1.33 0.02 1.66 -1 2 C-1 4.31 -1 6.62 -1 9 C-1.66 8.01 -2.32 7.02 -3 6 C-3.33 7.98 -3.66 9.96 -4 12 C-4.33 12 -4.66 12 -5 12 C-5.25 4.375 -5.25 4.375 -3 1 C-2.01 0.67 -1.02 0.34 0 0 Z " fill="#272F61" transform="translate(76,167)"/>
<path d="M0 0 C0.33 0.66 0.66 1.32 1 2 C-1.17508418 6.69360269 -1.17508418 6.69360269 -4.1875 7.8125 C-4.785625 7.874375 -5.38375 7.93625 -6 8 C-5.65120368 4.74456771 -4.97866739 3.98126893 -2.4375 1.75 C-1.633125 1.1725 -0.82875 0.595 0 0 Z " fill="#22254E" transform="translate(141,131)"/>
<path d="M0 0 C0.66 0 1.32 0 2 0 C2 0.99 2 1.98 2 3 C2.66 3.33 3.32 3.66 4 4 C2.1875 5.5625 2.1875 5.5625 0 7 C-0.99 6.67 -1.98 6.34 -3 6 C-2 4 -1 2 0 0 Z " fill="#5A6895" transform="translate(55,24)"/>
<path d="M0 0 C11.52164009 -0.3690205 11.52164009 -0.3690205 17 2 C16.34 2.66 15.68 3.32 15 4 C12.73725212 3.64644564 11.04911148 3.02455574 9 2 C7.46331135 1.77532169 5.92031946 1.59203195 4.375 1.4375 C3.55773437 1.35371094 2.74046875 1.26992188 1.8984375 1.18359375 C1.27195312 1.12300781 0.64546875 1.06242188 0 1 C0 0.67 0 0.34 0 0 Z " fill="#59769E" transform="translate(101,0)"/>
<path d="M0 0 C1.32 0 2.64 0 4 0 C4.33 0.99 4.66 1.98 5 3 C4.01 3.33 3.02 3.66 2 4 C0.62804426 5.29355827 -0.71182656 6.62298702 -2 8 C-2 4.79604584 -1.25664978 2.90600261 0 0 Z " fill="#22306A" transform="translate(92,165)"/>
<path d="M0 0 C1.5625 1.25 1.5625 1.25 3 3 C2.875 5.125 2.875 5.125 2 7 C1.01 7.33 0.02 7.66 -1 8 C-1.66 6.35 -2.32 4.7 -3 3 C-2.01 2.67 -1.02 2.34 0 2 C0 1.34 0 0.68 0 0 Z " fill="#263B70" transform="translate(108,86)"/>
<path d="M0 0 C0.66 0.66 1.32 1.32 2 2 C1.63318342 4.93453261 1.13562754 5.86437246 -1 8 C-1.99 8.33 -2.98 8.66 -4 9 C-3.35455571 5.51460083 -1.89865603 2.97180943 0 0 Z " fill="#5F7CAA" transform="translate(121,78)"/>
<path d="M0 0 C0.33 0 0.66 0 1 0 C1.33 3.3 1.66 6.6 2 10 C0.35 10 -1.3 10 -3 10 C-2.01 9.67 -1.02 9.34 0 9 C0 8.34 0 7.68 0 7 C-1.32 7 -2.64 7 -4 7 C-4 6.34 -4 5.68 -4 5 C-3.01 4.67 -2.02 4.34 -1 4 C-0.26676204 1.98491642 -0.26676204 1.98491642 0 0 Z " fill="#2A2E62" transform="translate(95,26)"/>
<path d="M0 0 C0.66 0 1.32 0 2 0 C5 3.46153846 5 3.46153846 5 6 C5.99 5.67 6.98 5.34 8 5 C8 5.99 8 6.98 8 8 C5.6875 7.8125 5.6875 7.8125 3 7 C0 2.96551724 0 2.96551724 0 0 Z " fill="#1D1D47" transform="translate(96,165)"/>
<path d="M0 0 C0.66 0.33 1.32 0.66 2 1 C0.83857315 5.35535069 -0.07699505 7.64619703 -4 10 C-3.67 10.66 -3.34 11.32 -3 12 C-3.99 12 -4.98 12 -6 12 C-5.42316338 8.10635283 -3.45178223 5.98810959 -1 3 C-0.67 2.01 -0.34 1.02 0 0 Z " fill="#354370" transform="translate(90,45)"/>
<path d="M0 0 C1.24546405 2.49092811 0.7767578 3.41080733 0 6 C-0.639375 6.12375 -1.27875 6.2475 -1.9375 6.375 C-2.9584375 6.684375 -2.9584375 6.684375 -4 7 C-4.33 7.66 -4.66 8.32 -5 9 C-4.34 9.33 -3.68 9.66 -3 10 C-3.99 10 -4.98 10 -6 10 C-5.58578031 5.16743695 -3.53586014 3.17320782 0 0 Z " fill="#5E78AA" transform="translate(63,17)"/>
<path d="M0 0 C0.66 0.33 1.32 0.66 2 1 C2.103125 1.804375 2.20625 2.60875 2.3125 3.4375 C2.539375 4.283125 2.76625 5.12875 3 6 C5.47636012 7.37466625 5.47636012 7.37466625 8 8 C7.34 8.66 6.68 9.32 6 10 C3.5625 9.1875 3.5625 9.1875 1 8 C0 5 0 5 1 2 C0.01 1.67 -0.98 1.34 -2 1 C-1.34 0.67 -0.68 0.34 0 0 Z " fill="#498BC5" transform="translate(119,7)"/>
<path d="M0 0 C-6.93 -0.33 -13.86 -0.66 -21 -1 C-21 -1.33 -21 -1.66 -21 -2 C-18.25048889 -2.24913692 -15.5023728 -2.47491836 -12.75 -2.6875 C-11.97269531 -2.76033203 -11.19539063 -2.83316406 -10.39453125 -2.90820312 C-9.64042969 -2.96298828 -8.88632813 -3.01777344 -8.109375 -3.07421875 C-7.41811523 -3.13182373 -6.72685547 -3.18942871 -6.01464844 -3.2487793 C-4 -3 -4 -3 0 0 Z " fill="#59779F" transform="translate(108,13)"/>
<path d="M0 0 C0.65234375 1.734375 0.65234375 1.734375 1 4 C0.00390625 6.140625 0.00390625 6.140625 -1.4375 8.25 C-1.91058594 8.95640625 -2.38367188 9.6628125 -2.87109375 10.390625 C-3.24363281 10.92171875 -3.61617188 11.4528125 -4 12 C-4.33 10.68 -4.66 9.36 -5 8 C-4.34 8 -3.68 8 -3 8 C-2.87625 7.236875 -2.7525 6.47375 -2.625 5.6875 C-2 3 -2 3 0 0 Z " fill="#4C6D93" transform="translate(129,71)"/>
<path d="M0 0 C1.98 0.66 3.96 1.32 6 2 C5.67 3.32 5.34 4.64 5 6 C3.68 6 2.36 6 1 6 C0.34 4.35 -0.32 2.7 -1 1 C-0.67 0.67 -0.34 0.34 0 0 Z " fill="#233B93" transform="translate(67,42)"/>
<path d="M0 0 C0.33 0 0.66 0 1 0 C1 1.98 1 3.96 1 6 C-1.4375 5.625 -1.4375 5.625 -4 5 C-4.33 4.34 -4.66 3.68 -5 3 C-4.34 2.34 -3.68 1.68 -3 1 C-2.01 1.33 -1.02 1.66 0 2 C0 1.34 0 0.68 0 0 Z " fill="#1C1D4D" transform="translate(89,30)"/>
<path d="M0 0 C2.3828125 -0.29296875 2.3828125 -0.29296875 5.125 -0.1875 C6.03507812 -0.16042969 6.94515625 -0.13335938 7.8828125 -0.10546875 C8.58148438 -0.07066406 9.28015625 -0.03585938 10 0 C7.50494038 2.49505962 6.32671112 2.35948376 2.875 2.625 C1.96492188 2.69976562 1.05484375 2.77453125 0.1171875 2.8515625 C-0.93082031 2.92503906 -0.93082031 2.92503906 -2 3 C-1.34 2.01 -0.68 1.02 0 0 Z " fill="#233983" transform="translate(62,32)"/>
<path d="M0 0 C1.32 0 2.64 0 4 0 C5 3 5 3 4 6 C3.01 6 2.02 6 1 6 C0.67 4.02 0.34 2.04 0 0 Z " fill="#23326E" transform="translate(63,64)"/>
<path d="M0 0 C2.31 0 4.62 0 7 0 C7.66 1.98 8.32 3.96 9 6 C8.443125 5.54625 7.88625 5.0925 7.3125 4.625 C4.94686561 2.96266232 2.70984342 1.97855457 0 1 C0 0.67 0 0.34 0 0 Z " fill="#1D2660" transform="translate(67,41)"/>
<path d="M0 0 C1.65 0 3.3 0 5 0 C5.33 1.65 5.66 3.3 6 5 C4.68 5.33 3.36 5.66 2 6 C2 5.01 2 4.02 2 3 C1.34 2.67 0.68 2.34 0 2 C0 1.34 0 0.68 0 0 Z " fill="#4B6F97" transform="translate(111,90)"/>
<path d="M0 0 C0 0.66 0 1.32 0 2 C-1.2065625 2.433125 -1.2065625 2.433125 -2.4375 2.875 C-5.1326468 3.73262568 -5.1326468 3.73262568 -6 6 C-6.99 5.67 -7.98 5.34 -9 5 C-9 4.34 -9 3.68 -9 3 C-5.63316085 0.56839395 -4.26649636 0 0 0 Z " fill="#444B6B" transform="translate(108,25)"/>
<path d="M0 0 C3.16717283 1.58358642 4.73268318 2.45263699 6.3125 5.6875 C6.539375 6.450625 6.76625 7.21375 7 8 C5.68 7.34 4.36 6.68 3 6 C3 5.34 3 4.68 3 4 C2.34 4 1.68 4 1 4 C0.67 2.68 0.34 1.36 0 0 Z " fill="#537BA8" transform="translate(128,11)"/>
<path d="M0 0 C0 2.31 0 4.62 0 7 C-0.66 7 -1.32 7 -2 7 C-4 4 -4 4 -4 1 C-2 0 -2 0 0 0 Z " fill="#40467B" transform="translate(103,164)"/>
<path d="M0 0 C-2.39763185 2.39763185 -3.33273498 2.34280586 -6.625 2.625 C-7.44226563 2.69976562 -8.25953125 2.77453125 -9.1015625 2.8515625 C-9.72804688 2.90054688 -10.35453125 2.94953125 -11 3 C-11 2.34 -11 1.68 -11 1 C-7.32589215 -0.17571451 -3.83070817 -0.07366746 0 0 Z " fill="#173079" transform="translate(118,128)"/>
<path d="M0 0 C3.7952131 1.49097658 5.61042731 3.75700849 8 7 C7.4225 6.690625 6.845 6.38125 6.25 6.0625 C4.15705816 5.07416636 2.25464725 4.4831387 0 4 C0 2.68 0 1.36 0 0 Z " fill="#263264" transform="translate(118,99)"/>
<path d="M0 0 C1.65 0 3.3 0 5 0 C4.01 1.485 4.01 1.485 3 3 C3 4.32 3 5.64 3 7 C2.01 6.67 1.02 6.34 0 6 C0 4.02 0 2.04 0 0 Z " fill="#13276F" transform="translate(67,71)"/>
<path d="M0 0 C1.98 0.495 1.98 0.495 4 1 C4 2.32 4 3.64 4 5 C2.35 5.33 0.7 5.66 -1 6 C-0.67 4.02 -0.34 2.04 0 0 Z " fill="#1D265C" transform="translate(73,59)"/>
<path d="M0 0 C1.134375 0.020625 2.26875 0.04125 3.4375 0.0625 C3.7675 1.3825 4.0975 2.7025 4.4375 4.0625 C2.05185923 3.48665568 -0.22932784 2.84022405 -2.5625 2.0625 C-2.8925 3.0525 -3.2225 4.0425 -3.5625 5.0625 C-4.125 3.125 -4.125 3.125 -4.5625 1.0625 C-3.5625 0.0625 -3.5625 0.0625 0 0 Z " fill="#3B3C6D" transform="translate(33.5625,32.9375)"/>
<path d="M0 0 C0.66 0.33 1.32 0.66 2 1 C1.38722388 3.96175123 0.74627478 5.38058783 -1 8 C-1.66 7.67 -2.32 7.34 -3 7 C-2.01 4.69 -1.02 2.38 0 0 Z " fill="#4C4867" transform="translate(144,126)"/>
<path d="M0 0 C0.99 0.495 0.99 0.495 2 1 C3.67654729 0.72057545 5.34608154 0.39171753 7 0 C2.25 4.875 2.25 4.875 0 6 C0 4.02 0 2.04 0 0 Z " fill="#28498A" transform="translate(94,102)"/>
<path d="M0 0 C0.99 0 1.98 0 3 0 C2.33333333 2 1.66666667 4 1 6 C0.01 6 -0.98 6 -2 6 C-1.125 1.125 -1.125 1.125 0 0 Z " fill="#61618A" transform="translate(94,24)"/>
<path d="M0 0 C-0.33 0.99 -0.66 1.98 -1 3 C-1.99 3 -2.98 3 -4 3 C-4.33 3.99 -4.66 4.98 -5 6 C-5.99 5.67 -6.98 5.34 -8 5 C-3.375 0 -3.375 0 0 0 Z " fill="#4F799F" transform="translate(73,11)"/>
<path d="M0 0 C2.64 0.66 5.28 1.32 8 2 C8 2.33 8 2.66 8 3 C5.03 3.66 2.06 4.32 -1 5 C-0.67 3.35 -0.34 1.7 0 0 Z " fill="#5189B8" transform="translate(64,16)"/>
<path d="M0 0 C1.98 0.495 1.98 0.495 4 1 C4 1.33 4 1.66 4 2 C2.35 2 0.7 2 -1 2 C-0.67 1.34 -0.34 0.68 0 0 Z " fill="#615B6C" transform="translate(99,21)"/>
</svg>
